<?xml version="1.0" encoding="UTF-8" standalone="no"?>
<!DOCTYPE svg PUBLIC "-//W3C//DTD SVG 1.1//EN" "http://www.w3.org/Graphics/SVG/1.1/DTD/svg11.dtd">
<svg width="100%" height="100%" viewBox="0 0 637 320" version="1.1" xmlns="http://www.w3.org/2000/svg" xmlns:xlink="http://www.w3.org/1999/xlink" xml:space="preserve" xmlns:serif="http://www.serif.com/" style="fill-rule:evenodd;clip-rule:evenodd;stroke-linejoin:round;stroke-miterlimit:2;">
    <g transform="matrix(1,0,0,1,-5478,-1479)">
        <g id="Face-book-logo2" serif:id="Face book logo2" transform="matrix(1.987621,0,0,1,-5410.667676,-0.239172)">
            <rect x="5478.242" y="1479.239" width="320" height="320" style="fill:none;"/>
            <g transform="matrix(1.297262,0,0,3.4741,4515.199353,-550.719244)">
                <g>
                    <g transform="matrix(0.058589,-0.026191,0.035288,0.043484,708.614137,613.922777)">
                        <path d="M961.768,464.5L949.171,554.808C941.419,553.726 740.602,553.184 732.776,553.184C639.316,553.184 563.439,629.061 563.439,722.521C563.439,815.981 639.414,887.577 732.776,891.858C782.149,894.122 884.113,848.043 884.113,754.521L975.294,754.521C975.294,898.401 851.752,983.04 732.776,983.04C588.991,983.04 472.257,866.305 472.257,722.521C472.257,578.737 588.991,462.002 732.776,462.002C744.816,462.002 949.843,462.837 961.768,464.5Z" style="fill:rgb(30,58,138);"/>
                    </g>
                    <g transform="matrix(0.074408,-0.033262,0.044816,0.055225,735.065945,627.06661)">
                        <circle cx="414.23" cy="237.146" r="60.445" style="fill:rgb(255,106,0);"/>
                    </g>
                    <g transform="matrix(0.366827,0,0,0.272257,558.40698,529.933766)">
                        <path d="M647.244,329.564C644.285,329.564 641.897,329.199 640.079,328.468C638.261,327.737 636.934,326.507 636.096,324.779C635.258,323.05 634.839,320.706 634.839,317.748L634.839,306.145L630.402,306.145L630.402,299.89L634.839,299.89L634.839,291.977L642.806,291.977L642.806,299.89L651.361,299.89L651.361,306.145L642.806,306.145L642.806,318.069C642.806,319.459 643.171,320.519 643.902,321.25C644.633,321.981 645.675,322.346 647.03,322.346L651.361,322.346L651.361,329.564L647.244,329.564Z" style="fill-rule:nonzero;"/>
                    </g>
                    <g transform="matrix(0.366827,0,0,0.272257,558.40698,529.933766)">
                        <path d="M657.135,329.19L657.135,290.159L665.69,290.159L665.69,304.702C667.258,300.888 670.146,298.981 674.352,298.981L674.726,298.981C677.97,298.981 680.447,300.13 682.158,302.429C683.869,304.729 684.724,308.088 684.724,312.508L684.724,329.19L676.17,329.19L676.17,311.973C676.17,310.369 675.697,309.077 674.753,308.097C673.808,307.117 672.569,306.627 671.037,306.627C669.433,306.627 668.141,307.152 667.16,308.204C666.18,309.255 665.69,310.619 665.69,312.294L665.69,329.19L657.135,329.19Z" style="fill-rule:nonzero;"/>
                    </g>
                </g>
                <g transform="matrix(1,0,0,1,-10.093842,0)">
                    <g transform="matrix(0.566183,0,0,0.420219,428.189845,487.399056)">
                        <path d="M778.152,361.472C772.283,361.472 767.284,360.28 763.158,357.895C759.031,355.511 755.897,352.377 753.757,348.495C751.617,344.612 750.547,340.378 750.547,335.793L750.547,333.684C750.547,328.976 751.663,324.65 753.895,320.707C756.126,316.763 759.306,313.614 763.433,311.26C767.56,308.907 772.466,307.73 778.152,307.73C783.838,307.73 788.76,308.907 792.917,311.26C797.075,313.614 800.27,316.763 802.501,320.707C804.733,324.65 805.849,328.976 805.849,333.684L805.849,335.793C805.849,340.378 804.763,344.612 802.593,348.495C800.422,352.377 797.289,355.511 793.193,357.895C789.096,360.28 784.083,361.472 778.152,361.472ZM778.152,349.091C782.371,349.091 785.596,347.731 787.828,345.01C790.059,342.289 791.175,338.88 791.175,334.784C791.175,330.565 790.029,327.065 787.736,324.283C785.443,321.501 782.249,320.11 778.152,320.11C774.056,320.11 770.876,321.501 768.614,324.283C766.352,327.065 765.221,330.565 765.221,334.784C765.221,338.88 766.322,342.289 768.523,345.01C770.724,347.731 773.933,349.091 778.152,349.091Z" style="fill-rule:nonzero;"/>
                    </g>
                    <g transform="matrix(0.566183,0,0,0.420219,428.189845,487.399056)">
                        <path d="M833.087,361.288C827.278,361.288 822.815,359.424 819.697,355.694C816.579,351.964 815.02,346.278 815.02,338.636L815.02,309.472L829.693,309.472L829.693,339.37C829.693,342.06 830.458,344.2 831.986,345.789C833.515,347.379 835.563,348.174 838.131,348.174C840.76,348.174 842.9,347.348 844.55,345.698C846.201,344.047 847.027,341.815 847.027,339.003L847.027,309.472L861.7,309.472L861.7,359.729L850.053,359.729L850.053,347.99C847.974,356.856 842.533,361.288 833.729,361.288L833.087,361.288Z" style="fill-rule:nonzero;"/>
                    </g>
                    <g transform="matrix(0.566183,0,0,0.420219,428.189845,487.399056)">
                        <path d="M897.834,361.472C893.493,361.472 889.718,360.753 886.508,359.317C883.298,357.88 880.623,355.939 878.483,353.493C876.343,351.047 874.754,348.281 873.714,345.193C872.675,342.106 872.155,338.911 872.155,335.609L872.155,333.867C872.155,329.281 873.118,325.002 875.044,321.028C876.97,317.053 879.843,313.844 883.665,311.398C887.486,308.952 892.179,307.73 897.742,307.73C902.267,307.73 906.271,308.601 909.756,310.343C913.241,312.086 916.023,314.516 918.102,317.634C920.181,320.752 921.342,324.329 921.587,328.364L907.188,328.364C906.944,326.102 906.027,324.192 904.437,322.632C902.847,321.073 900.616,320.294 897.742,320.294C894.013,320.294 891.261,321.624 889.488,324.283C887.715,326.943 886.829,330.443 886.829,334.784C886.829,338.88 887.669,342.258 889.351,344.918C891.032,347.578 893.86,348.907 897.834,348.907C900.769,348.907 903.061,348.143 904.712,346.615C906.363,345.086 907.341,343.069 907.647,340.562L921.954,340.562C921.709,344.719 920.532,348.372 918.423,351.521C916.314,354.67 913.471,357.116 909.894,358.858C906.317,360.601 902.297,361.472 897.834,361.472Z" style="fill-rule:nonzero;"/>
                    </g>
                    <g transform="matrix(0.566183,0,0,0.420219,428.189845,487.399056)">
                        <path d="M931.308,359.729L931.308,292.781L945.982,292.781L945.982,317.726C948.672,311.184 953.624,307.913 960.839,307.913L961.481,307.913C967.045,307.913 971.294,309.885 974.229,313.828C977.163,317.772 978.631,323.534 978.631,331.116L978.631,359.729L963.957,359.729L963.957,330.199C963.957,327.447 963.147,325.231 961.527,323.55C959.907,321.868 957.782,321.028 955.153,321.028C952.402,321.028 950.185,321.929 948.504,323.733C946.823,325.537 945.982,327.875 945.982,330.749L945.982,359.729L931.308,359.729Z" style="fill-rule:nonzero;"/>
                    </g>
                    <g transform="matrix(0.672812,0,0,0.499359,407.332183,379.276772)">
                        <path d="M637.478,519.347L637.478,476.419L622.487,476.419L622.487,465.961L664.537,465.961L664.537,476.419L649.472,476.419L649.472,519.347L637.478,519.347Z" style="fill-rule:nonzero;"/>
                    </g>
                </g>
                <g transform="matrix(0.500536,0,0,0.371496,549.503587,515.919626)">
                    <g transform="matrix(29.055955,0,0,29.055955,845.32047,359.729256)">
                    </g>
                    <text x="567.023px" y="359.729px" style="font-family:'Sora-Regular', 'Sora';font-size:29.056px;">R<tspan x="587.071px " y="359.729px ">o</tspan>botics A<tspan x="729.3px " y="359.729px ">c</tspan>adem<tspan x="829.427px " y="359.729px ">y</tspan></text>
                </g>
            </g>
        </g>
    </g>
</svg>
